<svg width="9" height="15" viewBox="0 0 9 15" fill="none" xmlns="http://www.w3.org/2000/svg">
<path d="M0.308578 6.75691L6.76258 0.307907C6.9595 0.110851 7.22664 9.38168e-05 7.50523 5.95729e-08C7.78381 -9.36976e-05 8.05102 0.110484 8.24808 0.307407C8.44513 0.504331 8.55589 0.771468 8.55598 1.05005C8.55608 1.32864 8.4455 1.59585 8.24858 1.79291L2.53658 7.49991L8.24358 13.2069C8.34115 13.3045 8.41855 13.4203 8.47136 13.5478C8.52417 13.6753 8.55134 13.8119 8.55134 13.9499C8.55134 14.0879 8.52417 14.2245 8.47136 14.352C8.41855 14.4795 8.34115 14.5953 8.24358 14.6929C8.146 14.7905 8.03017 14.8679 7.90269 14.9207C7.7752 14.9735 7.63857 15.0007 7.50058 15.0007C7.36259 15.0007 7.22596 14.9735 7.09847 14.9207C6.97099 14.8679 6.85515 14.7905 6.75758 14.6929L0.307579 8.24291C0.210066 8.14541 0.132715 8.02965 0.0799408 7.90225C0.0271667 7.77485 0 7.63831 0 7.50041C0 7.36251 0.0271667 7.22596 0.0799408 7.09857C0.132715 6.97117 0.210066 6.85541 0.307579 6.75791L0.308578 6.75691Z" fill="#008DFF"/>
</svg>
