<svg width="17" height="18" viewBox="0 0 17 18" fill="none" xmlns="http://www.w3.org/2000/svg">
<path d="M13.8007 8.19995H2.60008C1.71638 8.19995 1 8.9163 1 9.79995V15.4C1 16.2836 1.71638 17 2.60008 17H13.8007C14.6844 17 15.4008 16.2836 15.4008 15.4V9.79995C15.4008 8.9163 14.6844 8.19995 13.8007 8.19995Z" stroke="#3B3B3B" stroke-width="1.5" stroke-linecap="round" stroke-linejoin="round"/>
<path d="M4.20117 8.2V5C4.20117 3.93913 4.62262 2.92172 5.37281 2.17157C6.12299 1.42143 7.14046 1 8.20138 1C9.26231 1 10.2798 1.42143 11.03 2.17157C11.7801 2.92172 12.2016 3.93913 12.2016 5V8.2" stroke="#3B3B3B" stroke-width="1.5" stroke-linecap="round" stroke-linejoin="round"/>
</svg>
